<mxfile host="app.diagrams.net" modified="2023-04-29T14:53:44.499Z" agent="Mozilla/5.0 (X11; Linux x86_64) AppleWebKit/537.36 (KHTML, like Gecko) Chrome/112.0.0.0 Safari/537.36" etag="c31khYtBblDtgUQXAN6B" version="21.2.3" type="github">
  <diagram name="Pagina-1" id="nvYx9loCH7i7AWjf0cHW">
    <mxGraphModel dx="842" dy="523" grid="1" gridSize="10" guides="1" tooltips="1" connect="1" arrows="1" fold="1" page="1" pageScale="1" pageWidth="827" pageHeight="1169" math="0" shadow="0">
      <root>
        <mxCell id="0" />
        <mxCell id="1" parent="0" />
        <mxCell id="fdl8Fd37ZYrnNdNwSC8B-1" value="Idle" style="ellipse;whiteSpace=wrap;html=1;aspect=fixed;" vertex="1" parent="1">
          <mxGeometry x="180" y="120" width="60" height="60" as="geometry" />
        </mxCell>
        <mxCell id="fdl8Fd37ZYrnNdNwSC8B-2" value="Idle" style="ellipse;whiteSpace=wrap;html=1;aspect=fixed;" vertex="1" parent="1">
          <mxGeometry x="540" y="120" width="60" height="60" as="geometry" />
        </mxCell>
        <mxCell id="fdl8Fd37ZYrnNdNwSC8B-4" style="edgeStyle=none;rounded=0;orthogonalLoop=1;jettySize=auto;html=1;exitX=1;exitY=1;exitDx=0;exitDy=0;" edge="1" parent="1" target="fdl8Fd37ZYrnNdNwSC8B-1">
          <mxGeometry relative="1" as="geometry">
            <mxPoint x="177.07106781187713" y="77.07106781187724" as="sourcePoint" />
          </mxGeometry>
        </mxCell>
        <mxCell id="fdl8Fd37ZYrnNdNwSC8B-5" value="" style="ellipse;whiteSpace=wrap;html=1;aspect=fixed;fillColor=#000000;" vertex="1" parent="1">
          <mxGeometry x="190" y="130" width="10" height="10" as="geometry" />
        </mxCell>
        <mxCell id="fdl8Fd37ZYrnNdNwSC8B-7" value="" style="ellipse;whiteSpace=wrap;html=1;aspect=fixed;fillColor=#000000;" vertex="1" parent="1">
          <mxGeometry x="210" y="130" width="10" height="10" as="geometry" />
        </mxCell>
        <mxCell id="fdl8Fd37ZYrnNdNwSC8B-8" value="" style="ellipse;whiteSpace=wrap;html=1;aspect=fixed;fillColor=#000000;" vertex="1" parent="1">
          <mxGeometry x="560" y="130" width="10" height="10" as="geometry" />
        </mxCell>
        <mxCell id="fdl8Fd37ZYrnNdNwSC8B-9" value="" style="rounded=0;whiteSpace=wrap;html=1;fillColor=#000000;" vertex="1" parent="1">
          <mxGeometry x="150" y="70" width="50" height="10" as="geometry" />
        </mxCell>
        <mxCell id="fdl8Fd37ZYrnNdNwSC8B-10" value="Initial" style="text;html=1;align=center;verticalAlign=middle;resizable=0;points=[];autosize=1;strokeColor=none;fillColor=none;" vertex="1" parent="1">
          <mxGeometry x="146" y="48" width="50" height="30" as="geometry" />
        </mxCell>
      </root>
    </mxGraphModel>
  </diagram>
</mxfile>
